<?xml version="1.0" encoding="UTF-8" standalone="no"?>
<svg
   width="148.35051mm"
   height="177.91933mm"
   viewBox="0 0 148.35051 177.91933"
   version="1.1"
   id="svg1"
   xmlns="http://www.w3.org/2000/svg"
   xmlns:svg="http://www.w3.org/2000/svg">
  <defs id="defs1" />
  <g id="layer1" transform="translate(-24.70947,-12.493588)">
    <path
       style="fill:none;stroke:#ffffff;stroke-width:10;stroke-linecap:round;stroke-linejoin:round;stroke-miterlimit:3.1;stroke-dasharray:none;stroke-opacity:1;paint-order:fill markers stroke"
       d="m 168.21239,92.742098 c -28.16056,6.633375 -56.32112,13.266752 -74.156212,23.029202 -17.835091,9.76246 -25.344424,22.65348 -28.786262,44.74418 -3.441838,22.09071 -2.816061,53.37959 -6.257982,72.77916 -3.441921,19.39956 -10.951258,26.9089 -18.335649,27.34688 -7.384392,0.43799 -14.643412,-6.19525 -7.634351,-18.71124 7.009062,-12.51599 28.285499,-30.91385 42.991647,-46.37099 14.706148,-15.45714 22.841258,-27.9727 30.976529,-40.4885 0.25032,21.40202 0.50063,42.80405 0.62579,53.44248 0.12516,10.63843 0.12516,10.51328 0.12516,10.38812"
       id="path3"
       transform="translate(-0.52916667,-75.24851)" />
    <path
       style="fill:none;stroke:#ffffff;stroke-width:10;stroke-linecap:round;stroke-linejoin:round;stroke-miterlimit:3.1;stroke-dasharray:none;stroke-opacity:1;paint-order:fill markers stroke"
       d="m 134.66377,64.95597 v 63.45512"
       id="path4-8" />
    <path
       style="fill:none;stroke:#ffffff;stroke-width:10;stroke-linecap:round;stroke-linejoin:round;stroke-miterlimit:3.1;stroke-dasharray:none;stroke-opacity:1;paint-order:fill markers stroke"
       d="m 171.21618,123.90645 c 0,31.66498 0,63.32996 -10.38832,84.48177 -10.38833,21.15181 -31.16415,31.79003 -51.94038,42.42846"
       id="path9"
       transform="translate(-3.1574853,-75.24851)" />
  </g>
</svg>
